<svg width="169" height="42" viewBox="0 0 169 42" fill="none" xmlns="http://www.w3.org/2000/svg">
<path d="M57.784 35.6892H50.0571L50.8455 21.1908L50.0571 6.69238H57.784L56.9519 21.1908L57.784 35.6892Z" fill="white"/>
<path d="M124.196 6.69238H116.657L104.761 35.6892H112.721L114.68 29.6488H126.172L128.131 35.6892H136.091L124.196 6.69238ZM116.46 24.0917L120.427 12.3495L124.523 24.0917H116.46Z" fill="white"/>
<path d="M168.4 6.69238H160.673L162.336 29.6488L149.088 6.69238H139.387V35.6892H147.114L145.451 12.734L158.697 35.6892H168.4V6.69238Z" fill="white"/>
<path d="M91.1864 6.69238L82.9204 27.0915L74.6543 6.69238H64.4358V35.6892H72.1667L70.4996 12.734L79.7882 35.6892H86.0525L95.3412 12.734L93.673 35.6892H101.405V6.69238H91.1864Z" fill="white"/>
<path d="M33.9553 13.9378C33.2813 14.2621 31.6437 14.912 31.4032 14.9582C31.1626 14.912 29.5251 14.2621 28.851 13.9378C28.1771 13.6134 27.7911 13.1955 27.5995 12.8251C27.4066 12.4546 27.3589 11.5265 27.3589 10.4599V6.69238H35.4499V10.4599C35.4499 11.5265 35.4024 12.4533 35.2095 12.8251C35.0164 13.1955 34.6319 13.6134 33.9578 13.9378H33.9553Z" fill="white"/>
<path d="M35.2797 25.2675C34.5721 25.0213 32.954 24.3265 32.7507 24.1893C32.6132 23.9868 31.9159 22.3741 31.6689 21.6691C31.422 20.9641 31.4464 20.3974 31.5725 20.0001C31.6998 19.6026 32.3238 18.913 33.08 18.158L35.7531 15.4941L38.6139 18.3452L41.4747 21.1961L38.8017 23.8599C38.0453 24.6137 37.3532 25.2354 36.9532 25.3622C36.5544 25.4892 35.9858 25.5122 35.2784 25.2662L35.2797 25.2675Z" fill="white"/>
<path d="M28.1777 34.2113C27.8523 33.5396 27.2001 31.9077 27.1538 31.6681C27.2001 31.4283 27.8523 29.7964 28.1777 29.1247C28.5031 28.453 28.9224 28.0685 29.2943 27.8775C29.666 27.6852 30.5972 27.6377 31.6675 27.6377H35.448V31.6694V35.7009H31.6675C30.5972 35.7009 29.6673 35.6535 29.2943 35.4613C28.9224 35.269 28.5031 34.8856 28.1777 34.2139V34.2113Z" fill="white"/>
<path d="M16.81 35.5313C17.057 34.8263 17.7542 33.2136 17.8919 33.0111C18.095 32.8739 19.7133 32.179 20.4207 31.933C21.1283 31.6867 21.6969 31.7112 22.0956 31.8367C22.4944 31.9637 23.1865 32.5855 23.9441 33.3393L26.617 36.0031L23.7562 38.854L20.8955 41.7049L18.2225 39.0411C17.4661 38.2874 16.8422 37.5976 16.7148 37.199C16.5875 36.8017 16.5643 36.235 16.8113 35.53L16.81 35.5313Z" fill="white"/>
<path d="M7.83481 28.454C8.50884 28.1298 10.1464 27.4799 10.3869 27.4336C10.6274 27.4799 12.265 28.1298 12.939 28.454C13.613 28.7783 13.9989 29.1963 14.1906 29.5667C14.3835 29.9373 14.4311 30.8653 14.4311 31.9319V35.6995H10.3856H6.34009V31.9319C6.34009 30.8653 6.38768 29.9386 6.58063 29.5667C6.77358 29.1963 7.15819 28.7783 7.83223 28.454H7.83481Z" fill="white"/>
<path d="M13.6109 8.18098C13.9364 8.8527 14.5886 10.4846 14.6349 10.7243C14.5886 10.964 13.9364 12.5959 13.6109 13.2676C13.2855 13.9393 12.8662 14.3239 12.4944 14.5149C12.1226 14.7072 11.1914 14.7546 10.1211 14.7546H6.34058V10.723V6.69141H10.1211C11.1914 6.69141 12.1214 6.73884 12.4944 6.93111C12.8662 7.12341 13.2855 7.50669 13.6109 8.17841V8.18098Z" fill="white"/>
<path d="M24.9808 6.86051C24.7338 7.56556 24.0366 9.17822 23.899 9.38076C23.6958 9.51791 22.0776 10.2127 21.3701 10.4588C20.6626 10.705 20.0941 10.6806 19.6954 10.555C19.2966 10.4281 18.6046 9.80635 17.8469 9.05259L15.1738 6.38878L18.0347 3.5378L20.8955 0.685547L23.5684 3.34935C24.3248 4.10312 24.9486 4.79279 25.0761 5.19147C25.2033 5.58886 25.2278 6.15546 24.9808 6.86051Z" fill="white"/>
<path d="M6.50975 17.1246C7.21723 17.3707 8.83544 18.0655 9.03868 18.2026C9.17632 18.4053 9.87352 20.0178 10.1205 20.723C10.3675 21.428 10.343 21.9945 10.217 22.392C10.0896 22.7893 9.46575 23.479 8.70939 24.2341L6.03638 26.8979L3.17558 24.0469L0.313477 21.196L2.98649 18.5321C3.74285 17.7784 4.4349 17.1567 4.83495 17.0297C5.23371 16.9028 5.80228 16.8784 6.50975 17.1246Z" fill="white"/>
</svg>
