<svg width="1009" height="933" viewBox="0 0 1009 933" fill="none" xmlns="http://www.w3.org/2000/svg">
<g style="mix-blend-mode:soft-light" clip-path="url(#clip0_169_140)">
<path d="M824.319 325.644C807.808 333.618 767.71 349.564 761.813 350.703C755.916 349.564 715.818 333.618 699.307 325.644C682.796 317.671 673.361 307.42 668.643 298.297C663.926 289.185 662.747 266.394 662.747 240.196V147.611H860.889V240.196C860.889 266.404 859.71 289.185 854.992 298.297C850.275 307.41 840.84 317.661 824.329 325.644H824.319Z" fill="black"/>
<path d="M856.766 604.033C839.449 597.995 799.814 580.92 794.845 577.553C791.478 572.574 774.403 532.949 768.365 515.632C762.327 498.314 762.911 484.394 766.016 474.616C769.121 464.839 784.402 447.894 802.929 429.367L868.399 363.897L938.455 433.953L1008.51 504.009L943.041 569.479C924.514 588.006 907.569 603.287 897.782 606.392C888.004 609.497 874.084 610.081 856.766 604.043V604.033Z" fill="black"/>
<path d="M682.855 823.818C674.881 807.307 658.935 767.209 657.796 761.312C658.935 755.415 674.881 715.317 682.855 698.806C690.828 682.295 701.079 672.86 710.202 668.142C719.314 663.425 742.105 662.246 768.303 662.246H860.888V761.312V860.378H768.303C742.095 860.378 719.314 859.199 710.202 854.481C701.089 849.764 690.838 840.329 682.855 823.818Z" fill="black"/>
<path d="M404.466 856.266C410.503 838.949 427.579 799.314 430.946 794.345C435.925 790.978 475.55 773.903 492.867 767.865C510.185 761.827 524.105 762.411 533.883 765.516C543.66 768.621 560.605 783.902 579.132 802.429L644.601 867.899L574.545 937.955L504.489 1008.01L439.02 942.541C420.493 924.014 405.211 907.069 402.107 897.282C399.002 887.504 398.418 873.584 404.455 856.266H404.466Z" fill="black"/>
<path d="M184.681 682.355C201.192 674.382 241.291 658.435 247.187 657.296C253.084 658.435 293.182 674.382 309.693 682.355C326.204 690.329 335.639 700.58 340.357 709.702C345.074 718.815 346.254 741.606 346.254 767.803V860.388H247.187H148.121V767.803C148.121 741.595 149.3 718.815 154.018 709.702C158.735 700.59 168.17 690.339 184.681 682.355Z" fill="black"/>
<path d="M326.146 184.182C334.12 200.693 350.066 240.791 351.205 246.688C350.066 252.584 334.12 292.683 326.146 309.194C318.173 325.705 307.922 335.14 298.799 339.857C289.687 344.574 266.896 345.754 240.698 345.754H148.113V246.688V147.621H240.698C266.906 147.621 289.687 148.801 298.799 153.518C307.912 158.236 318.163 167.67 326.146 184.182Z" fill="black"/>
<path d="M604.533 151.734C598.495 169.052 581.42 208.686 578.053 213.656C573.074 217.022 533.449 234.098 516.132 240.136C498.814 246.174 484.894 245.589 475.116 242.484C465.339 239.38 448.394 224.099 429.867 205.572L364.397 140.102L434.453 70.0459L504.499 0L569.969 65.4696C588.496 83.9966 603.777 100.941 606.882 110.729C609.987 120.506 610.571 134.427 604.533 151.744V151.734Z" fill="black"/>
<path d="M152.234 403.966C169.552 410.004 209.186 427.079 214.156 430.446C217.522 435.425 234.598 475.05 240.636 492.367C246.674 509.685 246.089 523.605 242.984 533.383C239.88 543.16 224.599 560.105 206.072 578.632L140.602 644.102L70.5459 574.046L0.5 504L65.9696 438.53C84.4966 420.003 101.441 404.722 111.229 401.617C121.006 398.512 134.927 397.928 152.244 403.966H152.234Z" fill="black"/>
</g>
<defs>
<clipPath id="clip0_169_140">
<rect width="1008" height="1008" fill="white" transform="translate(0.5)"/>
</clipPath>
</defs>
</svg>
