<svg width="70" height="70" viewBox="0 0 70 70" fill="none" xmlns="http://www.w3.org/2000/svg">
<path d="M69.6875 35C69.6875 37.96 66.0511 40.3997 65.3227 43.1284C64.5711 45.9497 66.4731 49.8809 65.0452 52.3495C63.5941 54.8586 59.2292 55.1592 57.1942 57.1942C55.1592 59.2292 54.8586 63.5941 52.3495 65.0452C49.8809 66.4731 45.9497 64.5711 43.1284 65.3227C40.3997 66.0511 37.96 69.6875 35 69.6875C32.04 69.6875 29.6003 66.0511 26.8716 65.3227C24.0503 64.5711 20.1191 66.4731 17.6505 65.0452C15.1414 63.5941 14.8408 59.2292 12.8058 57.1942C10.7708 55.1592 6.40594 54.8586 4.95484 52.3495C3.52687 49.8809 5.42891 45.9497 4.67734 43.1284C3.94891 40.3997 0.3125 37.96 0.3125 35C0.3125 32.04 3.94891 29.6003 4.67734 26.8716C5.42891 24.0503 3.52687 20.1191 4.95484 17.6505C6.40594 15.1414 10.7708 14.8408 12.8058 12.8058C14.8408 10.7708 15.1414 6.40594 17.6505 4.95484C20.1191 3.52687 24.0503 5.42891 26.8716 4.67734C29.6003 3.94891 32.04 0.3125 35 0.3125C37.96 0.3125 40.3997 3.94891 43.1284 4.67734C45.9497 5.42891 49.8809 3.52687 52.3495 4.95484C54.8586 6.40594 55.1592 10.7708 57.1942 12.8058C59.2292 14.8408 63.5941 15.1414 65.0452 17.6505C66.4731 20.1191 64.5711 24.0503 65.3227 26.8716C66.0511 29.6003 69.6875 32.04 69.6875 35Z" fill="#FFA05F"/>
<path d="M45.0246 24.6632L31.8202 37.8675L24.9752 31.0283C23.4894 29.5425 21.0786 29.5425 19.5929 31.0283C18.1071 32.5141 18.1071 34.9249 19.5929 36.4107L29.1955 46.0133C30.6408 47.4586 32.988 47.4586 34.4333 46.0133L50.4011 30.0455C51.8869 28.5597 51.8869 26.1489 50.4011 24.6632C48.9154 23.1774 46.5104 23.1774 45.0246 24.6632Z" fill="#FFFCEE"/>
</svg>
